<svg width="24" height="24" viewBox="0 0 24 24" fill="none" xmlns="http://www.w3.org/2000/svg">
<path d="M12.9448 14.0859C12.7045 14.6255 11.9655 14.8205 11.294 14.5216C10.6226 14.2227 10.2731 13.5429 10.5133 13.0033C10.7535 12.4638 11.4926 12.2687 12.164 12.5676C12.8354 12.8665 13.185 13.5463 12.9448 14.0859Z" fill="url(#paint0_linear_63_17)"/>
<path d="M12.9448 14.0859C12.7045 14.6255 11.9655 14.8205 11.294 14.5216C10.6226 14.2227 10.2731 13.5429 10.5133 13.0033C10.7535 12.4638 11.4926 12.2687 12.164 12.5676C12.8354 12.8665 13.185 13.5463 12.9448 14.0859Z" fill="url(#paint1_radial_63_17)" style="mix-blend-mode:soft-light"/>
<path d="M16.9651 16.4127C17.668 16.6142 18.3692 16.3197 18.5312 15.7549C18.6932 15.1902 18.2547 14.569 17.5518 14.3675C16.8488 14.166 16.1476 14.4605 15.9856 15.0253C15.8236 15.59 16.2622 16.2112 16.9651 16.4127Z" fill="url(#paint2_linear_63_17)"/>
<path d="M16.9651 16.4127C17.668 16.6142 18.3692 16.3197 18.5312 15.7549C18.6932 15.1902 18.2547 14.569 17.5518 14.3675C16.8488 14.166 16.1476 14.4605 15.9856 15.0253C15.8236 15.59 16.2622 16.2112 16.9651 16.4127Z" fill="url(#paint3_radial_63_17)" style="mix-blend-mode:soft-light"/>
<path d="M7.21791 9.76659C7.838 10.1542 8.08834 10.8723 7.77705 11.3706C7.46576 11.8688 6.71072 11.9586 6.09062 11.571C5.47052 11.1835 5.22018 10.4653 5.53148 9.96706C5.84277 9.46878 6.59781 9.37903 7.21791 9.76659Z" fill="url(#paint4_linear_63_17)"/>
<path d="M7.21791 9.76659C7.838 10.1542 8.08834 10.8723 7.77705 11.3706C7.46576 11.8688 6.71072 11.9586 6.09062 11.571C5.47052 11.1835 5.22018 10.4653 5.53148 9.96706C5.84277 9.46878 6.59781 9.37903 7.21791 9.76659Z" fill="url(#paint5_radial_63_17)" style="mix-blend-mode:soft-light"/>
<path fill-rule="evenodd" clip-rule="evenodd" d="M15.6319 4.77586C18.8043 6.18831 20.8407 9.26995 20.9219 12.7134C22.7894 14.1831 24.6453 16.2405 23.7822 18.179C22.8142 20.3531 19.3668 20.2637 15.4482 19.1635C13.5607 20.2085 11.2191 20.3872 9.10113 19.4442C6.98311 18.5012 5.54962 16.643 5.06266 14.5396C1.62309 12.3637 -0.750162 9.86158 0.217799 7.68751C1.0809 5.74894 3.8516 5.75149 6.19344 6.15582C8.80675 3.91209 12.4595 3.36342 15.6319 4.77586ZM1.86206 8.41958C1.39182 9.47576 3.91757 12.4734 10.8338 15.5526C17.7499 18.6319 21.6676 18.5031 22.1379 17.447C22.5271 16.5728 20.9257 14.8925 19.0919 13.5905C17.6655 12.571 15.7117 11.4472 13.1631 10.3125C12.4694 10.0037 12.1986 9.17944 12.4902 8.52434C12.7819 7.86923 13.4227 7.43118 14.7717 7.36884C15.4067 7.36691 15.4901 7.19083 15.5191 7.03987C15.5551 6.80696 15.2322 6.56957 14.8993 6.42133C12.252 5.24269 9.01136 5.737 6.76508 8.10225C4.57045 7.61066 2.25126 7.54542 1.86206 8.41958Z" fill="url(#paint6_linear_63_17)"/>
<path fill-rule="evenodd" clip-rule="evenodd" d="M15.6319 4.77586C18.8043 6.18831 20.8407 9.26995 20.9219 12.7134C22.7894 14.1831 24.6453 16.2405 23.7822 18.179C22.8142 20.3531 19.3668 20.2637 15.4482 19.1635C13.5607 20.2085 11.2191 20.3872 9.10113 19.4442C6.98311 18.5012 5.54962 16.643 5.06266 14.5396C1.62309 12.3637 -0.750162 9.86158 0.217799 7.68751C1.0809 5.74894 3.8516 5.75149 6.19344 6.15582C8.80675 3.91209 12.4595 3.36342 15.6319 4.77586ZM1.86206 8.41958C1.39182 9.47576 3.91757 12.4734 10.8338 15.5526C17.7499 18.6319 21.6676 18.5031 22.1379 17.447C22.5271 16.5728 20.9257 14.8925 19.0919 13.5905C17.6655 12.571 15.7117 11.4472 13.1631 10.3125C12.4694 10.0037 12.1986 9.17944 12.4902 8.52434C12.7819 7.86923 13.4227 7.43118 14.7717 7.36884C15.4067 7.36691 15.4901 7.19083 15.5191 7.03987C15.5551 6.80696 15.2322 6.56957 14.8993 6.42133C12.252 5.24269 9.01136 5.737 6.76508 8.10225C4.57045 7.61066 2.25126 7.54542 1.86206 8.41958Z" fill="url(#paint7_radial_63_17)" style="mix-blend-mode:soft-light"/>
<defs>
<linearGradient id="paint0_linear_63_17" x1="12" y1="4" x2="12" y2="20.0593" gradientUnits="userSpaceOnUse">
<stop stop-color="#00D196"/>
<stop offset="1" stop-color="#00B381"/>
</linearGradient>
<radialGradient id="paint1_radial_63_17" cx="0" cy="0" r="1" gradientUnits="userSpaceOnUse" gradientTransform="translate(21.3476 9.31886) rotate(159.984) scale(25.3483 15.4625)">
<stop stop-color="white"/>
<stop offset="1" stop-color="white" stop-opacity="0"/>
</radialGradient>
<linearGradient id="paint2_linear_63_17" x1="12" y1="4" x2="12" y2="20.0593" gradientUnits="userSpaceOnUse">
<stop stop-color="#00D196"/>
<stop offset="1" stop-color="#00B381"/>
</linearGradient>
<radialGradient id="paint3_radial_63_17" cx="0" cy="0" r="1" gradientUnits="userSpaceOnUse" gradientTransform="translate(21.3476 9.31886) rotate(159.984) scale(25.3483 15.4625)">
<stop stop-color="white"/>
<stop offset="1" stop-color="white" stop-opacity="0"/>
</radialGradient>
<linearGradient id="paint4_linear_63_17" x1="12" y1="4" x2="12" y2="20.0593" gradientUnits="userSpaceOnUse">
<stop stop-color="#00D196"/>
<stop offset="1" stop-color="#00B381"/>
</linearGradient>
<radialGradient id="paint5_radial_63_17" cx="0" cy="0" r="1" gradientUnits="userSpaceOnUse" gradientTransform="translate(21.3476 9.31886) rotate(159.984) scale(25.3483 15.4625)">
<stop stop-color="white"/>
<stop offset="1" stop-color="white" stop-opacity="0"/>
</radialGradient>
<linearGradient id="paint6_linear_63_17" x1="12" y1="4" x2="12" y2="20.0593" gradientUnits="userSpaceOnUse">
<stop stop-color="#00D196"/>
<stop offset="1" stop-color="#00B381"/>
</linearGradient>
<radialGradient id="paint7_radial_63_17" cx="0" cy="0" r="1" gradientUnits="userSpaceOnUse" gradientTransform="translate(21.3476 9.31886) rotate(159.984) scale(25.3483 15.4625)">
<stop stop-color="white"/>
<stop offset="1" stop-color="white" stop-opacity="0"/>
</radialGradient>
</defs>
</svg>
