<svg width="748" height="500" viewBox="0 0 748 500" fill="none" xmlns="http://www.w3.org/2000/svg">
<g clip-path="url(#clip0_189_1049)">
<path d="M403.031 314.021C395.551 330.821 372.541 336.894 351.636 327.587C330.732 318.28 319.849 297.116 327.328 280.316C334.808 263.516 357.818 257.443 378.723 266.75C399.627 276.057 410.511 297.221 403.031 314.021Z" fill="url(#paint0_linear_189_1049)"/>
<path d="M403.031 314.021C395.551 330.821 372.541 336.894 351.636 327.587C330.732 318.28 319.849 297.116 327.328 280.316C334.808 263.516 357.818 257.443 378.723 266.75C399.627 276.057 410.511 297.221 403.031 314.021Z" fill="url(#paint1_radial_189_1049)" style="mix-blend-mode:soft-light"/>
<path d="M528.203 386.465C550.089 392.738 571.92 383.57 576.964 365.986C582.008 348.403 568.354 329.063 546.469 322.79C524.583 316.517 502.752 325.685 497.708 343.269C492.664 360.852 506.317 380.192 528.203 386.465Z" fill="url(#paint2_linear_189_1049)"/>
<path d="M528.203 386.465C550.089 392.738 571.92 383.57 576.964 365.986C582.008 348.403 568.354 329.063 546.469 322.79C524.583 316.517 502.752 325.685 497.708 343.269C492.664 360.852 506.317 380.192 528.203 386.465Z" fill="url(#paint3_radial_189_1049)" style="mix-blend-mode:soft-light"/>
<path d="M224.727 179.541C244.034 191.608 251.828 213.966 242.136 229.48C232.444 244.994 208.936 247.789 189.63 235.722C170.323 223.655 162.529 201.297 172.221 185.783C181.913 170.269 205.421 167.474 224.727 179.541Z" fill="url(#paint4_linear_189_1049)"/>
<path d="M224.727 179.541C244.034 191.608 251.828 213.966 242.136 229.48C232.444 244.994 208.936 247.789 189.63 235.722C170.323 223.655 162.529 201.297 172.221 185.783C181.913 170.269 205.421 167.474 224.727 179.541Z" fill="url(#paint5_radial_189_1049)" style="mix-blend-mode:soft-light"/>
<path fill-rule="evenodd" clip-rule="evenodd" d="M486.694 24.1562C585.466 68.1322 648.869 164.078 651.398 271.288C709.541 317.049 767.323 381.103 740.45 441.46C710.313 509.149 602.978 506.364 480.976 472.111C422.209 504.648 349.305 510.21 283.361 480.85C217.417 451.49 172.786 393.636 157.624 328.146C50.5344 260.401 -23.3561 182.498 6.78109 114.809C33.6536 54.4527 119.918 54.532 192.831 67.1208C274.195 -2.73712 387.922 -19.8198 486.694 24.1562ZM57.9747 137.602C43.3338 170.486 121.972 263.816 337.306 359.688C552.639 455.561 674.616 451.551 689.256 418.667C701.374 391.45 651.516 339.135 594.421 298.598C550.011 266.855 489.18 231.867 409.83 196.538C388.232 186.923 379.798 161.26 388.88 140.864C397.961 120.467 417.911 106.829 459.913 104.888C479.684 104.828 482.278 99.3455 483.182 94.6453C484.302 87.3938 474.251 80.0029 463.885 75.3874C381.463 38.6908 280.566 54.0811 210.629 127.722C142.3 112.417 70.0923 110.386 57.9747 137.602Z" fill="url(#paint6_linear_189_1049)"/>
<path fill-rule="evenodd" clip-rule="evenodd" d="M486.694 24.1562C585.466 68.1322 648.869 164.078 651.398 271.288C709.541 317.049 767.323 381.103 740.45 441.46C710.313 509.149 602.978 506.364 480.976 472.111C422.209 504.648 349.305 510.21 283.361 480.85C217.417 451.49 172.786 393.636 157.624 328.146C50.5344 260.401 -23.3561 182.498 6.78109 114.809C33.6536 54.4527 119.918 54.532 192.831 67.1208C274.195 -2.73712 387.922 -19.8198 486.694 24.1562ZM57.9747 137.602C43.3338 170.486 121.972 263.816 337.306 359.688C552.639 455.561 674.616 451.551 689.256 418.667C701.374 391.45 651.516 339.135 594.421 298.598C550.011 266.855 489.18 231.867 409.83 196.538C388.232 186.923 379.798 161.26 388.88 140.864C397.961 120.467 417.911 106.829 459.913 104.888C479.684 104.828 482.278 99.3455 483.182 94.6453C484.302 87.3938 474.251 80.0029 463.885 75.3874C381.463 38.6908 280.566 54.0811 210.629 127.722C142.3 112.417 70.0923 110.386 57.9747 137.602Z" fill="url(#paint7_radial_189_1049)" style="mix-blend-mode:soft-light"/>
</g>
<defs>
<linearGradient id="paint0_linear_189_1049" x1="373.616" y1="0" x2="373.616" y2="500" gradientUnits="userSpaceOnUse">
<stop stop-color="#00D196"/>
<stop offset="1" stop-color="#00B381"/>
</linearGradient>
<radialGradient id="paint1_radial_189_1049" cx="0" cy="0" r="1" gradientUnits="userSpaceOnUse" gradientTransform="translate(664.651 165.601) rotate(159.984) scale(789.213 481.419)">
<stop stop-color="white"/>
<stop offset="1" stop-color="white" stop-opacity="0"/>
</radialGradient>
<linearGradient id="paint2_linear_189_1049" x1="373.616" y1="0" x2="373.616" y2="500" gradientUnits="userSpaceOnUse">
<stop stop-color="#00D196"/>
<stop offset="1" stop-color="#00B381"/>
</linearGradient>
<radialGradient id="paint3_radial_189_1049" cx="0" cy="0" r="1" gradientUnits="userSpaceOnUse" gradientTransform="translate(664.651 165.601) rotate(159.984) scale(789.213 481.419)">
<stop stop-color="white"/>
<stop offset="1" stop-color="white" stop-opacity="0"/>
</radialGradient>
<linearGradient id="paint4_linear_189_1049" x1="373.616" y1="0" x2="373.616" y2="500" gradientUnits="userSpaceOnUse">
<stop stop-color="#00D196"/>
<stop offset="1" stop-color="#00B381"/>
</linearGradient>
<radialGradient id="paint5_radial_189_1049" cx="0" cy="0" r="1" gradientUnits="userSpaceOnUse" gradientTransform="translate(664.651 165.601) rotate(159.984) scale(789.213 481.419)">
<stop stop-color="white"/>
<stop offset="1" stop-color="white" stop-opacity="0"/>
</radialGradient>
<linearGradient id="paint6_linear_189_1049" x1="373.616" y1="0" x2="373.616" y2="500" gradientUnits="userSpaceOnUse">
<stop stop-color="#00D196"/>
<stop offset="1" stop-color="#00B381"/>
</linearGradient>
<radialGradient id="paint7_radial_189_1049" cx="0" cy="0" r="1" gradientUnits="userSpaceOnUse" gradientTransform="translate(664.651 165.601) rotate(159.984) scale(789.213 481.419)">
<stop stop-color="white"/>
<stop offset="1" stop-color="white" stop-opacity="0"/>
</radialGradient>
<clipPath id="clip0_189_1049">
<rect width="747.233" height="500" fill="white"/>
</clipPath>
</defs>
</svg>
