<svg xmlns="http://www.w3.org/2000/svg" width="434" height="195" fill="none" viewBox="0 0 434 195"><g clip-path="url(#a)"><mask id="b" width="434" height="195" x="0" y="0" maskUnits="userSpaceOnUse" style="mask-type:luminance"><path fill="#fff" d="M417.5 0h-401C7.663 0 .5 7.163.5 16v163c0 8.837 7.163 16 16 16h401c8.837 0 16-7.163 16-16V16c0-8.837-7.163-16-16-16Z"/></mask><g mask="url(#b)"><path fill="#00D196" d="M417.5 0h-401C7.663 0 .5 7.163.5 16v163c0 8.837 7.163 16 16 16h401c8.837 0 16-7.163 16-16V16c0-8.837-7.163-16-16-16Z"/></g><g fill="#fff" clip-path="url(#c)"><path d="M230.892 101.5a18.003 18.003 0 0 0-15.86-15.9 17.999 17.999 0 0 0-19.02 11.94 11.998 11.998 0 0 0-11.011 12.455A12.003 12.003 0 0 0 197 121.5h34a10 10 0 0 0-.108-20Z"/><path d="M243.176 104.588a14.001 14.001 0 0 0-8.9-6.704 22 22 0 0 0-25.348-16.008 16.008 16.008 0 0 1 29.568 3.64 10.002 10.002 0 0 1 10.222 7.604 9.997 9.997 0 0 1-5.542 11.468Z"/></g></g><defs><clipPath id="a"><path fill="#fff" d="M0 0h434v195H0z"/></clipPath><clipPath id="c"><path fill="#fff" d="M185 65.5h64v64h-64z"/></clipPath></defs></svg>