<svg width="434" height="195" viewBox="0 0 434 195" fill="none" xmlns="http://www.w3.org/2000/svg">
<g clip-path="url(#clip0_93_17)">
<mask id="mask0_93_17" style="mask-type:luminance" maskUnits="userSpaceOnUse" x="0" y="0" width="434" height="195">
<path d="M417.5 0H16.5C7.66344 0 0.5 7.16344 0.5 16V179C0.5 187.837 7.66344 195 16.5 195H417.5C426.337 195 433.5 187.837 433.5 179V16C433.5 7.16344 426.337 0 417.5 0Z" fill="white"/>
</mask>
<g mask="url(#mask0_93_17)">
<path d="M417.5 0H16.5C7.66344 0 0.5 7.16344 0.5 16V179C0.5 187.837 7.66344 195 16.5 195H417.5C426.337 195 433.5 187.837 433.5 179V16C433.5 7.16344 426.337 0 417.5 0Z" fill="#00D196"/>
</g>
<g clip-path="url(#clip1_93_17)">
<path d="M230.892 101.5C230.442 97.4447 228.627 93.6625 225.746 90.7736C222.864 87.8847 219.087 86.0606 215.032 85.6003C210.978 85.14 206.888 86.0708 203.432 88.2402C199.976 90.4096 197.36 93.6888 196.012 97.5401C192.924 97.7929 190.053 99.2304 188.001 101.552C185.948 103.873 184.873 106.899 185.001 109.995C185.129 113.09 186.449 116.017 188.686 118.162C190.922 120.306 193.901 121.502 197 121.5H231C233.652 121.486 236.19 120.418 238.055 118.533C239.92 116.648 240.96 114.098 240.946 111.446C240.932 108.794 239.864 106.256 237.979 104.391C236.093 102.526 233.544 101.486 230.892 101.5Z" fill="white"/>
<path d="M243.176 104.588C242.23 102.921 240.953 101.466 239.422 100.313C237.891 99.1593 236.139 98.3328 234.276 97.8841C232.857 92.5056 229.454 87.8642 224.751 84.8941C220.048 81.924 214.394 80.8456 208.928 81.8761C210.462 79.0513 212.811 76.7538 215.669 75.2826C218.527 73.8113 221.761 73.2345 224.952 73.6273C228.142 74.02 231.14 75.3641 233.556 77.4846C235.972 79.605 237.693 82.4036 238.496 85.5161C240.818 85.3975 243.109 86.0919 244.975 87.4797C246.84 88.8676 248.164 90.8622 248.718 93.1204C249.272 95.3786 249.022 97.7593 248.01 99.853C246.999 101.947 245.289 103.618 243.176 104.588Z" fill="white"/>
</g>
</g>
<defs>
<clipPath id="clip0_93_17">
<rect width="434" height="195" fill="white"/>
</clipPath>
<clipPath id="clip1_93_17">
<rect width="64" height="64" fill="white" transform="translate(185 65.5)"/>
</clipPath>
</defs>
</svg>
