<svg xmlns="http://www.w3.org/2000/svg" width="434" height="195" fill="none" viewBox="0 0 434 195"><g clip-path="url(#a)"><mask id="b" width="434" height="195" x="0" y="0" maskUnits="userSpaceOnUse" style="mask-type:luminance"><path fill="#fff" d="M417.5 0h-401C7.663 0 .5 7.163.5 16v163c0 8.837 7.163 16 16 16h401c8.837 0 16-7.163 16-16V16c0-8.837-7.163-16-16-16Z"/></mask><g mask="url(#b)"><path fill="#1C483F" d="M417.5 0h-401C7.663 0 .5 7.163.5 16v163c0 8.837 7.163 16 16 16h401c8.837 0 16-7.163 16-16V16c0-8.837-7.163-16-16-16Z"/></g><path fill="#fff" d="M200.662 71.091c4.314-1.946 10.122-3.091 16.4-3.091 6.279 0 12.059 1.145 16.344 3.094C237.518 72.964 241 76 241 80v.004c-.001.691-.387 1.736-1.537 3.027-1.124 1.263-2.827 2.582-5.034 3.783C230.02 89.213 223.849 91 217 91c-6.849 0-13.02-1.787-17.429-4.186-2.207-1.2-3.91-2.52-5.034-3.783C193.385 81.738 193 80.691 193 80c0-4.053 3.531-7.045 7.662-8.909Z"/><path fill="#fff" d="M236.34 90.328c1.199-.652 2.306-1.47 3.301-2.363.507-.456 1.359-.112 1.359.57v9.715c0 .691-.385 1.487-1.537 2.781-1.124 1.263-2.827 2.582-5.034 3.783C230.02 107.213 223.849 109 217 109c-6.849 0-13.02-1.787-17.429-4.186-2.207-1.201-3.91-2.52-5.034-3.783-1.152-1.294-1.537-2.09-1.537-2.781v-9.715c0-.681.852-1.025 1.359-.57.995.893 2.102 1.711 3.301 2.363C202.661 93.048 209.49 95 217 95s14.339-1.951 19.34-4.672Z"/><path fill="#fff" d="M194.359 105.965c-.507-.455-1.359-.111-1.359.57V116c0 4.028 3.501 7.021 7.616 8.892C204.912 126.844 210.707 128 217 128c6.293 0 12.088-1.156 16.384-3.108C237.5 123.021 241 120.028 241 116v-9.465c0-.681-.852-1.025-1.359-.57-.995.893-2.102 1.711-3.301 2.363C231.339 111.049 224.51 113 217 113s-14.339-1.951-19.34-4.672c-1.199-.652-2.306-1.47-3.301-2.363Z"/></g><defs><clipPath id="a"><path fill="#fff" d="M0 0h434v195H0z"/></clipPath></defs></svg>