<svg xmlns="http://www.w3.org/2000/svg" width="434" height="196" fill="none" viewBox="0 0 434 196"><g clip-path="url(#a)"><mask id="b" width="434" height="196" x="0" y="0" maskUnits="userSpaceOnUse" style="mask-type:luminance"><path fill="#fff" d="M417.5.5h-401C7.663.5.5 7.663.5 16.5v163c0 8.837 7.163 16 16 16h401c8.837 0 16-7.163 16-16v-163c0-8.837-7.163-16-16-16Z"/></mask><g mask="url(#b)"><path fill="#00D196" d="M417.5.5h-401C7.663.5.5 7.663.5 16.5v163c0 8.837 7.163 16 16 16h401c8.837 0 16-7.163 16-16v-163c0-8.837-7.163-16-16-16Z"/></g><path fill="#fff" d="M200.662 71.591c4.313-1.946 10.122-3.091 16.4-3.091 6.279 0 12.059 1.145 16.344 3.094C237.518 73.464 241 76.5 241 80.5v.004c-.001.691-.387 1.736-1.537 3.027-1.124 1.263-2.827 2.582-5.034 3.783C230.02 89.713 223.849 91.5 217 91.5c-6.849 0-13.02-1.787-17.429-4.186-2.207-1.2-3.91-2.52-5.034-3.783-1.152-1.293-1.537-2.34-1.537-3.031 0-4.053 3.531-7.045 7.662-8.909Z"/><path fill="#fff" d="M236.34 90.828a17.446 17.446 0 0 0 3.301-2.363c.507-.456 1.359-.112 1.359.57v9.715c0 .691-.385 1.488-1.537 2.781-1.124 1.263-2.827 2.582-5.034 3.783-4.409 2.399-10.58 4.186-17.429 4.186-6.849 0-13.02-1.787-17.429-4.186-2.207-1.201-3.91-2.52-5.034-3.783-1.152-1.293-1.537-2.09-1.537-2.781v-9.715c0-.681.852-1.025 1.359-.57.995.893 2.102 1.711 3.301 2.363 5.001 2.72 11.83 4.672 19.34 4.672s14.339-1.951 19.34-4.672Z"/><path fill="#fff" d="M194.359 106.465c-.507-.455-1.359-.111-1.359.57v9.465c0 4.028 3.501 7.021 7.616 8.892 4.296 1.952 10.091 3.108 16.384 3.108 6.293 0 12.088-1.156 16.384-3.108 4.115-1.871 7.616-4.864 7.616-8.892v-9.465c0-.681-.852-1.025-1.359-.57-.994.893-2.102 1.711-3.301 2.363-5.001 2.721-11.83 4.672-19.34 4.672s-14.339-1.951-19.34-4.672c-1.199-.652-2.306-1.47-3.301-2.363Z"/></g><defs><clipPath id="a"><path fill="#fff" d="M0 .5h434v195H0z"/></clipPath></defs></svg>