<svg width="434" height="196" viewBox="0 0 434 196" fill="none" xmlns="http://www.w3.org/2000/svg">
<g clip-path="url(#clip0_91_39)">
<mask id="mask0_91_39" style="mask-type:luminance" maskUnits="userSpaceOnUse" x="0" y="0" width="434" height="196">
<path d="M417.5 0.5H16.5C7.66344 0.5 0.5 7.66344 0.5 16.5V179.5C0.5 188.337 7.66344 195.5 16.5 195.5H417.5C426.337 195.5 433.5 188.337 433.5 179.5V16.5C433.5 7.66344 426.337 0.5 417.5 0.5Z" fill="white"/>
</mask>
<g mask="url(#mask0_91_39)">
<path d="M417.5 0.5H16.5C7.66344 0.5 0.5 7.66344 0.5 16.5V179.5C0.5 188.337 7.66344 195.5 16.5 195.5H417.5C426.337 195.5 433.5 188.337 433.5 179.5V16.5C433.5 7.66344 426.337 0.5 417.5 0.5Z" fill="#1C483F"/>
</g>
<g clip-path="url(#clip1_91_39)">
<path d="M230.892 102C230.442 97.9447 228.627 94.1625 225.746 91.2736C222.864 88.3847 219.087 86.5606 215.032 86.1003C210.978 85.64 206.888 86.5708 203.432 88.7402C199.976 90.9096 197.36 94.1888 196.012 98.0401C192.924 98.2929 190.053 99.7304 188.001 102.052C185.948 104.373 184.873 107.399 185.001 110.495C185.129 113.59 186.449 116.517 188.686 118.662C190.922 120.806 193.901 122.002 197 122H231C233.652 121.986 236.19 120.918 238.055 119.033C239.92 117.148 240.96 114.598 240.946 111.946C240.932 109.294 239.864 106.756 237.979 104.891C236.093 103.026 233.544 101.986 230.892 102Z" fill="white"/>
<path d="M243.176 105.088C242.23 103.421 240.953 101.966 239.422 100.813C237.891 99.6593 236.139 98.8328 234.276 98.3841C232.857 93.0056 229.454 88.3642 224.751 85.3941C220.048 82.424 214.394 81.3456 208.928 82.3761C210.462 79.5513 212.811 77.2538 215.669 75.7826C218.527 74.3113 221.761 73.7345 224.952 74.1273C228.142 74.52 231.14 75.8641 233.556 77.9846C235.972 80.105 237.693 82.9036 238.496 86.0161C240.818 85.8975 243.109 86.5919 244.975 87.9797C246.84 89.3676 248.164 91.3622 248.718 93.6204C249.272 95.8786 249.022 98.2593 248.01 100.353C246.999 102.447 245.289 104.118 243.176 105.088Z" fill="white"/>
</g>
</g>
<defs>
<clipPath id="clip0_91_39">
<rect width="434" height="195" fill="white" transform="translate(0 0.5)"/>
</clipPath>
<clipPath id="clip1_91_39">
<rect width="64" height="64" fill="white" transform="translate(185 66)"/>
</clipPath>
</defs>
</svg>
