<svg width="122" height="32" viewBox="0 0 122 32" fill="none" xmlns="http://www.w3.org/2000/svg">
<path d="M1.01136 21H3.47159V16.1932H8.46591V21H10.9205V9.36364H8.46591V14.1648H3.47159V9.36364H1.01136V21ZM24.442 15.1818C24.442 11.375 22.0784 9.20455 18.9932 9.20455C15.8909 9.20455 13.5443 11.375 13.5443 15.1818C13.5443 18.9716 15.8909 21.1591 18.9932 21.1591C22.0784 21.1591 24.442 18.9886 24.442 15.1818ZM21.9477 15.1818C21.9477 17.6477 20.7773 18.983 18.9932 18.983C17.2034 18.983 16.0386 17.6477 16.0386 15.1818C16.0386 12.7159 17.2034 11.3807 18.9932 11.3807C20.7773 11.3807 21.9477 12.7159 21.9477 15.1818ZM27.0645 21H29.5247V17.2273H31.5929C34.269 17.2273 35.8259 15.6307 35.8259 13.3068C35.8259 10.9943 34.2974 9.36364 31.6554 9.36364H27.0645V21ZM29.5247 15.2557V11.375H31.1838C32.6043 11.375 33.2918 12.1477 33.2918 13.3068C33.2918 14.4602 32.6043 15.2557 31.1952 15.2557H29.5247ZM38.2239 21H40.6841V17.2273H42.7523C45.4284 17.2273 46.9852 15.6307 46.9852 13.3068C46.9852 10.9943 45.4568 9.36364 42.8148 9.36364H38.2239V21ZM40.6841 15.2557V11.375H42.3432C43.7636 11.375 44.4511 12.1477 44.4511 13.3068C44.4511 14.4602 43.7636 15.2557 42.3545 15.2557H40.6841ZM55.6957 12.7102H58.0537C58.0196 10.6364 56.3151 9.20455 53.7241 9.20455C51.173 9.20455 49.3037 10.6136 49.3151 12.7273C49.3094 14.4432 50.5196 15.4261 52.4855 15.8977L53.7526 16.2159C55.0196 16.5227 55.7241 16.8864 55.7298 17.6705C55.7241 18.5227 54.9173 19.1023 53.6673 19.1023C52.3889 19.1023 51.4685 18.5114 51.3889 17.3466H49.0082C49.0707 19.8636 50.8719 21.1648 53.6957 21.1648C56.5366 21.1648 58.2071 19.8068 58.2128 17.6761C58.2071 15.7386 56.7469 14.7102 54.7241 14.2557L53.6787 14.0057C52.6673 13.7727 51.8207 13.3977 51.8378 12.5625C51.8378 11.8125 52.5026 11.2614 53.7071 11.2614C54.8832 11.2614 55.6048 11.7955 55.6957 12.7102ZM70.9347 13.4375C70.6108 10.75 68.5767 9.20455 65.8835 9.20455C62.8097 9.20455 60.4631 11.375 60.4631 15.1818C60.4631 18.9773 62.7699 21.1591 65.8835 21.1591C68.8665 21.1591 70.6676 19.1761 70.9347 17.0341L68.446 17.0227C68.2131 18.267 67.2358 18.983 65.9233 18.983C64.1562 18.983 62.9574 17.6705 62.9574 15.1818C62.9574 12.7614 64.1392 11.3807 65.9403 11.3807C67.2869 11.3807 68.2585 12.1591 68.446 13.4375H70.9347ZM84.192 15.1818C84.192 11.375 81.8284 9.20455 78.7432 9.20455C75.6409 9.20455 73.2943 11.375 73.2943 15.1818C73.2943 18.9716 75.6409 21.1591 78.7432 21.1591C81.8284 21.1591 84.192 18.9886 84.192 15.1818ZM81.6977 15.1818C81.6977 17.6477 80.5273 18.983 78.7432 18.983C76.9534 18.983 75.7886 17.6477 75.7886 15.1818C75.7886 12.7159 76.9534 11.3807 78.7432 11.3807C80.5273 11.3807 81.6977 12.7159 81.6977 15.1818ZM85.8557 11.392H89.4182V21H91.85V11.392H95.4125V9.36364H85.8557V11.392ZM107.538 13.4375C107.214 10.75 105.18 9.20455 102.487 9.20455C99.4128 9.20455 97.0662 11.375 97.0662 15.1818C97.0662 18.9773 99.373 21.1591 102.487 21.1591C105.47 21.1591 107.271 19.1761 107.538 17.0341L105.049 17.0227C104.816 18.267 103.839 18.983 102.526 18.983C100.759 18.983 99.5605 17.6705 99.5605 15.1818C99.5605 12.7614 100.742 11.3807 102.543 11.3807C103.89 11.3807 104.862 12.1591 105.049 13.4375H107.538ZM110.102 21H112.562V16.1932H117.557V21H120.011V9.36364H117.557V14.1648H112.562V9.36364H110.102V21Z" fill="white"/>
</svg>
